<svg xmlns="http://www.w3.org/2000/svg" width="960" height="540" viewBox="0 0 960 540" role="img" aria-label="tetris hero">
  <defs>
    <linearGradient id="bg" x1="0" y1="0" x2="1" y2="1">
      <stop offset="0%" stop-color="#0f172a"/>
      <stop offset="100%" stop-color="#1e293b"/>
    </linearGradient>
  </defs>
  <rect width="960" height="540" fill="url(#bg)"/>
  <rect x="180" y="70" width="300" height="400" rx="16" fill="#111827" stroke="#334155" stroke-width="4"/>
  <g transform="translate(205 95)">
    <rect width="24" height="24" x="0" y="288" fill="#22d3ee"/>
    <rect width="24" height="24" x="24" y="288" fill="#22d3ee"/>
    <rect width="24" height="24" x="48" y="288" fill="#22d3ee"/>
    <rect width="24" height="24" x="72" y="288" fill="#22d3ee"/>
    <rect width="24" height="24" x="96" y="264" fill="#a78bfa"/>
    <rect width="24" height="24" x="96" y="288" fill="#a78bfa"/>
    <rect width="24" height="24" x="96" y="312" fill="#a78bfa"/>
    <rect width="24" height="24" x="120" y="312" fill="#a78bfa"/>
    <rect width="24" height="24" x="168" y="216" fill="#f59e0b"/>
    <rect width="24" height="24" x="192" y="216" fill="#f59e0b"/>
    <rect width="24" height="24" x="216" y="216" fill="#f59e0b"/>
    <rect width="24" height="24" x="216" y="240" fill="#f59e0b"/>
  </g>
  <rect x="540" y="120" width="240" height="140" rx="14" fill="#111827" stroke="#334155" stroke-width="3"/>
  <text x="560" y="165" fill="#e2e8f0" font-size="28" font-family="Arial">NEXT</text>
  <rect x="580" y="185" width="22" height="22" fill="#34d399"/>
  <rect x="602" y="185" width="22" height="22" fill="#34d399"/>
  <rect x="624" y="185" width="22" height="22" fill="#34d399"/>
  <rect x="646" y="185" width="22" height="22" fill="#34d399"/>
  <text x="540" y="320" fill="#f8fafc" font-size="42" font-family="Arial" font-weight="700">TETRIS</text>
  <text x="540" y="360" fill="#94a3b8" font-size="22" font-family="Arial">Rotate · Stack · Clear Lines</text>
</svg>
